<svg xmlns="http://www.w3.org/2000/svg" viewBox="0 0 24 24" fill="currentColor">
<path  d="M8.29303 12.707C8.10556 12.5195 8.00024 12.2652 8.00024 12C8.00024 11.7349 8.10556 11.4806 8.29303 11.293L13.95 5.63604C14.0423 5.54053 14.1526 5.46435 14.2746 5.41194C14.3966 5.35953 14.5279 5.33194 14.6606 5.33079C14.7934 5.32963 14.9251 5.35494 15.048 5.40522C15.1709 5.4555 15.2825 5.52975 15.3764 5.62364C15.4703 5.71754 15.5446 5.82919 15.5949 5.95208C15.6451 6.07498 15.6704 6.20666 15.6693 6.33944C15.6681 6.47222 15.6405 6.60344 15.5881 6.72544C15.5357 6.84745 15.4595 6.95779 15.364 7.05004L10.414 12L15.364 16.95C15.5462 17.1386 15.647 17.3912 15.6447 17.6534C15.6424 17.9156 15.5373 18.1664 15.3518 18.3519C15.1664 18.5373 14.9156 18.6424 14.6534 18.6447C14.3912 18.647 14.1386 18.5462 13.95 18.364L8.29303 12.707Z" fill="currentColor"/>
</svg>