<svg viewBox="0 0 16 16" fill="currentColor" xmlns="http://www.w3.org/2000/svg">
<g id="time_line">
<path id="Vector" d="M8.00001 1.3335C11.682 1.3335 14.6667 4.31816 14.6667 8.00016C14.6667 11.6822 11.682 14.6668 8.00001 14.6668C4.31801 14.6668 1.33334 11.6822 1.33334 8.00016C1.33334 4.31816 4.31801 1.3335 8.00001 1.3335ZM8.00001 2.66683C6.58552 2.66683 5.22897 3.22873 4.22877 4.22893C3.22858 5.22912 2.66668 6.58567 2.66668 8.00016C2.66668 9.41465 3.22858 10.7712 4.22877 11.7714C5.22897 12.7716 6.58552 13.3335 8.00001 13.3335C9.4145 13.3335 10.7711 12.7716 11.7712 11.7714C12.7714 10.7712 13.3333 9.41465 13.3333 8.00016C13.3333 6.58567 12.7714 5.22912 11.7712 4.22893C10.7711 3.22873 9.4145 2.66683 8.00001 2.66683ZM8.00001 4.00016C8.1633 4.00018 8.3209 4.06013 8.44292 4.16864C8.56495 4.27715 8.64291 4.42666 8.66201 4.58883L8.66668 4.66683L8.66668 7.72416L10.4713 9.52883C10.5909 9.6488 10.6603 9.80979 10.6655 9.97909C10.6707 10.1484 10.6112 10.3133 10.4992 10.4403C10.3872 10.5674 10.231 10.647 10.0624 10.6631C9.89375 10.6792 9.72534 10.6304 9.59134 10.5268L9.52868 10.4715L7.52868 8.4715C7.42506 8.36779 7.35852 8.23283 7.33934 8.0875L7.33334 8.00016L7.33334 4.66683C7.33334 4.49002 7.40358 4.32045 7.52861 4.19543C7.65363 4.0704 7.8232 4.00016 8.00001 4.00016Z" fill="currentColor"/>
</g>
</svg>
