<svg viewBox="0 0 16 16" fill="none" xmlns="http://www.w3.org/2000/svg">
<g id="ic_like" clip-path="url(#clip0_792_991)">
<path id="Vector" d="M7.96912 14.7162C7.68803 14.7149 7.42089 14.6025 7.22742 14.4063C6.68608 13.9873 0.660886 9.24062 0.679082 5.28352C0.68931 3.05919 2.51259 1.25798 4.74314 1.26839C6.06553 1.27456 7.27992 1.91951 8.02316 2.96462C8.77598 1.92649 9.99624 1.29291 11.3186 1.29908C13.5492 1.30949 15.3558 3.12764 15.3456 5.35197C15.3274 9.30907 9.25881 13.9993 8.71363 14.4132C8.51837 14.6076 8.2502 14.7175 7.96912 14.7162ZM4.73893 2.18424C3.01382 2.17619 1.60364 3.56846 1.59574 5.2878C1.57916 8.89262 7.75222 13.6541 7.81433 13.702C7.83741 13.7191 7.85869 13.7394 7.87761 13.7609C7.92314 13.8129 8.02217 13.8134 8.06829 13.7617C8.08785 13.7405 8.10932 13.721 8.132 13.7035C8.19578 13.6561 14.4124 8.94939 14.4289 5.3477C14.4368 3.62835 13.0395 2.22298 11.3144 2.21493C10.0665 2.20911 8.93816 2.93837 8.43847 4.07171C8.29158 4.40497 7.7415 4.4024 7.59768 4.06778C7.10843 2.92983 5.98624 2.19006 4.73893 2.18424Z" fill="#9E9E9E" stroke="#9E9E9E" stroke-width="0.5"/>
</g>
<defs>
<clipPath id="clip0_792_991">
<rect width="16" height="16" fill="white"/>
</clipPath>
</defs>
</svg>
