<svg viewBox="0 0 16 16" fill="none" xmlns="http://www.w3.org/2000/svg">
<g id="information_line">
<path id="Vector" d="M8.00001 1.3335C11.682 1.3335 14.6667 4.31816 14.6667 8.00016C14.6667 11.6822 11.682 14.6668 8.00001 14.6668C4.31801 14.6668 1.33334 11.6822 1.33334 8.00016C1.33334 4.31816 4.31801 1.3335 8.00001 1.3335ZM8.00001 2.66683C6.58552 2.66683 5.22897 3.22873 4.22877 4.22893C3.22858 5.22912 2.66668 6.58567 2.66668 8.00016C2.66668 9.41465 3.22858 10.7712 4.22877 11.7714C5.22897 12.7716 6.58552 13.3335 8.00001 13.3335C9.4145 13.3335 10.7711 12.7716 11.7712 11.7714C12.7714 10.7712 13.3333 9.41465 13.3333 8.00016C13.3333 6.58567 12.7714 5.22912 11.7712 4.22893C10.7711 3.22873 9.4145 2.66683 8.00001 2.66683ZM7.99334 6.66683C8.36534 6.66683 8.66668 6.96816 8.66668 7.34016V10.7562C8.79376 10.8295 8.89309 10.9428 8.94924 11.0784C9.0054 11.214 9.01525 11.3643 8.97726 11.506C8.93928 11.6478 8.85559 11.7731 8.73917 11.8624C8.62274 11.9517 8.48009 12.0002 8.33334 12.0002H8.00668C7.91825 12.0002 7.8307 11.9827 7.749 11.9489C7.66731 11.9151 7.59308 11.8655 7.53056 11.8029C7.46803 11.7404 7.41844 11.6662 7.3846 11.5845C7.35076 11.5028 7.33334 11.4153 7.33334 11.3268V8.00016C7.15653 8.00016 6.98696 7.92992 6.86194 7.8049C6.73692 7.67988 6.66668 7.51031 6.66668 7.3335C6.66668 7.15669 6.73692 6.98712 6.86194 6.86209C6.98696 6.73707 7.15653 6.66683 7.33334 6.66683H7.99334ZM8.00001 4.66683C8.17682 4.66683 8.34639 4.73707 8.47141 4.86209C8.59644 4.98712 8.66668 5.15669 8.66668 5.3335C8.66668 5.51031 8.59644 5.67988 8.47141 5.8049C8.34639 5.92992 8.17682 6.00016 8.00001 6.00016C7.8232 6.00016 7.65363 5.92992 7.52861 5.8049C7.40358 5.67988 7.33334 5.51031 7.33334 5.3335C7.33334 5.15669 7.40358 4.98712 7.52861 4.86209C7.65363 4.73707 7.8232 4.66683 8.00001 4.66683Z" fill="#212121"/>
</g>
</svg>
